<svg xmlns="http://www.w3.org/2000/svg" viewBox="0 0 64 64" role="img" aria-label="Ubuntu icon">
  <circle cx="32" cy="32" r="28" fill="#E95420"/>
  <g fill="#FFFFFF">
    <circle cx="44.5" cy="20" r="4"/>
    <circle cx="19.5" cy="20" r="4"/>
    <circle cx="32" cy="46" r="4"/>
    <path d="M31.9 11a21 21 0 0 0-15.6 7.2 7 7 0 0 1 3.2 5.8 7 7 0 0 1-3 5.6A21 21 0 0 0 32 53a7 7 0 0 1 5.8-3.3 7 7 0 0 1 5.8 3.2A21 21 0 0 0 53 32a7 7 0 0 1-3.3-5.8A7 7 0 0 1 53 20 21 21 0 0 0 31.9 11Z" opacity=".2"/>
  </g>
</svg>

